<?xml version="1.0" encoding="UTF-8"?>
<svg width="110px" height="27px" viewBox="0 0 110 27" version="1.1" xmlns="http://www.w3.org/2000/svg" xmlns:xlink="http://www.w3.org/1999/xlink">
    <!-- Generator: Sketch 43.2 (39069) - http://www.bohemiancoding.com/sketch -->
    <title>Group</title>
    <desc>Created with Sketch.</desc>
    <defs></defs>
    <g id="Page-1" stroke="none" stroke-width="1" fill="none" fill-rule="evenodd">
        <g id="Group">
            <path d="M0.485503312,14.7298317 L0.485503312,12.3308189 L10.1186547,12.3308189 L10.1186547,11.3712138 L2.10969745,11.3712138 L2.10969745,9.24209 L10.1186547,9.24209 L10.1186547,8.2824849 L1.1295803,8.2824849 L1.1295803,5.91345981 L10.1186547,5.91345981 L10.1186547,5.19375599 L5.19006564,5.19375599 L5.19006564,4.02423727 L0.513506659,4.02423727 L0.513506659,1.38532324 L5.19006564,1.38532324 L5.19006564,0.125841547 L10.4546949,0.125841547 L10.4546949,1.38532324 L14.9072271,1.38532324 L14.9072271,0.125841547 L20.0878464,0.125841547 L20.0878464,1.38532324 L24.8764187,1.38532324 L24.8764187,4.02423727 L20.0878464,4.02423727 L20.0878464,5.19375599 L15.383284,5.19375599 L15.383284,5.91345981 L24.3163518,5.91345981 L24.3163518,8.2824849 L15.383284,8.2824849 L15.383284,9.24209 L23.5602614,9.24209 L23.5602614,11.3712138 L15.383284,11.3712138 L15.383284,12.3308189 L24.9044221,12.3308189 L24.9044221,14.7298317 L0.485503312,14.7298317 Z M15.0472439,26.5149818 L13.8150966,24.4158457 L18.3796422,24.4158457 L18.3796422,23.4862282 L7.09429325,23.4862282 L7.09429325,26.5149818 L1.82966398,26.5149818 L1.82966398,15.5095108 L23.6162681,15.5095108 L23.6162681,26.5149818 L15.0472439,26.5149818 Z M14.9072271,4.02423727 L10.5107016,4.02423727 L10.5107016,4.86389173 L14.9072271,4.86389173 L14.9072271,4.02423727 Z M18.3796422,17.7285976 L7.09429325,17.7285976 L7.09429325,18.6282274 L18.3796422,18.6282274 L18.3796422,17.7285976 Z M18.3796422,20.6374006 L7.09429325,20.6374006 L7.09429325,21.5370304 L18.3796422,21.5370304 L18.3796422,20.6374006 Z M28.4888505,14.7298317 L28.4888505,12.3308189 L38.122002,12.3308189 L38.122002,11.3712138 L30.1130447,11.3712138 L30.1130447,9.24209 L38.122002,9.24209 L38.122002,8.2824849 L29.1329275,8.2824849 L29.1329275,5.91345981 L38.122002,5.91345981 L38.122002,5.19375599 L33.1934128,5.19375599 L33.1934128,4.02423727 L28.5168539,4.02423727 L28.5168539,1.38532324 L33.1934128,1.38532324 L33.1934128,0.125841547 L38.4580421,0.125841547 L38.4580421,1.38532324 L42.9105743,1.38532324 L42.9105743,0.125841547 L48.0911936,0.125841547 L48.0911936,1.38532324 L52.8797659,1.38532324 L52.8797659,4.02423727 L48.0911936,4.02423727 L48.0911936,5.19375599 L43.3866312,5.19375599 L43.3866312,5.91345981 L52.319699,5.91345981 L52.319699,8.2824849 L43.3866312,8.2824849 L43.3866312,9.24209 L51.5636086,9.24209 L51.5636086,11.3712138 L43.3866312,11.3712138 L43.3866312,12.3308189 L52.9077693,12.3308189 L52.9077693,14.7298317 L28.4888505,14.7298317 Z M43.0505911,26.5149818 L41.8184438,24.4158457 L46.3829894,24.4158457 L46.3829894,23.4862282 L35.0976405,23.4862282 L35.0976405,26.5149818 L29.8330112,26.5149818 L29.8330112,15.5095108 L51.6196153,15.5095108 L51.6196153,26.5149818 L43.0505911,26.5149818 Z M42.9105743,4.02423727 L38.5140488,4.02423727 L38.5140488,4.86389173 L42.9105743,4.86389173 L42.9105743,4.02423727 Z M46.3829894,17.7285976 L35.0976405,17.7285976 L35.0976405,18.6282274 L46.3829894,18.6282274 L46.3829894,17.7285976 Z M46.3829894,20.6374006 L35.0976405,20.6374006 L35.0976405,21.5370304 L46.3829894,21.5370304 L46.3829894,20.6374006 Z" id="菁菁头条" fill="#00D1FF"></path>
            <polygon id="Path" fill="#595959" points="61.9808538 6.93304023 57.2482881 1.08544665 63.857078 1.08544665 68.5896437 6.93304023"></polygon>
            <polygon id="Path" fill="#595959" points="74.8623935 26.4550065 70.1018245 21.5070427 64.1091082 26.4550065 55.7641107 26.4550065 66.1533525 17.9385112 56.2961743 17.9385112 56.2961743 14.9697329 68.8976805 14.9697329 68.8976805 0.00589090909 74.49835 0.00589090909 74.49835 14.9697329 81.3031633 14.9697329 81.3031633 17.9385112 74.4423433 17.9385112 72.566119 19.5278572 75.2824437 19.5278572 81.9752437 26.4550065"></polygon>
            <polygon id="Path" fill="#595959" points="61.6448136 13.8302019 56.5762078 7.68273172 63.2970111 7.68273172 68.3376136 13.8302019"></polygon>
            <polygon id="Path" fill="#595959" points="101.157537 13.47035 96.6489976 11.2212755 92.1964654 13.47035 83.5154278 13.47035 92.3084788 9.00218873 86.4837826 6.09338577 95.1648202 6.09338577 96.6209943 6.78310193 100.989516 4.56401514 91.8884286 4.56401514 90.8803081 5.46364492 84.5235483 5.46364492 90.4042512 0.00589090909 96.7890143 0.00589090909 94.9407934 1.74517515 107.850336 1.74517515 107.850336 5.4036696 100.961513 8.97220107 109.978591 13.47035"></polygon>
            <polygon id="Path" fill="#595959" points="103.845858 26.4250188 100.093409 18.6582151 105.750085 18.6582151 109.474531 26.4250188"></polygon>
            <polygon id="Path" fill="#595959" points="99.4493323 17.7585853 99.4493323 26.4250188 92.4204922 26.4250188 91.1883449 23.4562406 93.9046696 23.4562406 93.9046696 17.7585853 84.4955449 17.7585853 84.4955449 14.9397453 93.9046696 14.9397453 93.9046696 13.1704734 99.4493323 13.1704734 99.4493323 14.9397453 108.830454 14.9397453 108.830454 17.7585853"></polygon>
            <polygon id="Path" fill="#595959" points="89.4801407 26.4250188 83.7114512 26.4250188 87.6319198 18.6582151 93.4006093 18.6582151"></polygon>
        </g>
    </g>
</svg>