<?xml version="1.0" encoding="UTF-8"?>
<svg width="120px" height="30px" viewBox="0 0 120 30" version="1.1" xmlns="http://www.w3.org/2000/svg" xmlns:xlink="http://www.w3.org/1999/xlink">
    <!-- Generator: Sketch 43.2 (39069) - http://www.bohemiancoding.com/sketch -->
    <title>Group</title>
    <desc>Created with Sketch.</desc>
    <defs></defs>
    <g id="Page-1" stroke="none" stroke-width="1" fill="none" fill-rule="evenodd">
        <g id="Group">
            <path d="M0.529639977,16.3664796 L0.529639977,13.7009099 L11.0385325,13.7009099 L11.0385325,12.634682 L2.30148813,12.634682 L2.30148813,10.2689889 L11.0385325,10.2689889 L11.0385325,9.202761 L1.23226942,9.202761 L1.23226942,6.5705109 L11.0385325,6.5705109 L11.0385325,5.77083998 L5.66188979,5.77083998 L5.66188979,4.47137474 L0.560189083,4.47137474 L0.560189083,1.53924805 L5.66188979,1.53924805 L5.66188979,0.139823941 L11.4051217,0.139823941 L11.4051217,1.53924805 L16.2624296,1.53924805 L16.2624296,0.139823941 L21.9140142,0.139823941 L21.9140142,1.53924805 L27.1379113,1.53924805 L27.1379113,4.47137474 L21.9140142,4.47137474 L21.9140142,5.77083998 L16.7817644,5.77083998 L16.7817644,6.5705109 L26.5269292,6.5705109 L26.5269292,9.202761 L16.7817644,9.202761 L16.7817644,10.2689889 L25.7021034,10.2689889 L25.7021034,12.634682 L16.7817644,12.634682 L16.7817644,13.7009099 L27.1684604,13.7009099 L27.1684604,16.3664796 L0.529639977,16.3664796 Z M16.4151751,29.4610909 L15.0710145,27.1287174 L20.0505187,27.1287174 L20.0505187,26.0958091 L7.739229,26.0958091 L7.739229,29.4610909 L1.99599707,29.4610909 L1.99599707,17.2327898 L25.7632016,17.2327898 L25.7632016,29.4610909 L16.4151751,29.4610909 Z M16.2624296,4.47137474 L11.4662199,4.47137474 L11.4662199,5.40432415 L16.2624296,5.40432415 L16.2624296,4.47137474 Z M20.0505187,19.6984418 L7.739229,19.6984418 L7.739229,20.6980304 L20.0505187,20.6980304 L20.0505187,19.6984418 Z M20.0505187,22.9304451 L7.739229,22.9304451 L7.739229,23.9300337 L20.0505187,23.9300337 L20.0505187,22.9304451 Z M31.078746,16.3664796 L31.078746,13.7009099 L41.5876385,13.7009099 L41.5876385,12.634682 L32.8505942,12.634682 L32.8505942,10.2689889 L41.5876385,10.2689889 L41.5876385,9.202761 L31.7813755,9.202761 L31.7813755,6.5705109 L41.5876385,6.5705109 L41.5876385,5.77083998 L36.2109958,5.77083998 L36.2109958,4.47137474 L31.1092951,4.47137474 L31.1092951,1.53924805 L36.2109958,1.53924805 L36.2109958,0.139823941 L41.9542278,0.139823941 L41.9542278,1.53924805 L46.8115356,1.53924805 L46.8115356,0.139823941 L52.4631202,0.139823941 L52.4631202,1.53924805 L57.6870174,1.53924805 L57.6870174,4.47137474 L52.4631202,4.47137474 L52.4631202,5.77083998 L47.3308704,5.77083998 L47.3308704,6.5705109 L57.0760353,6.5705109 L57.0760353,9.202761 L47.3308704,9.202761 L47.3308704,10.2689889 L56.2512094,10.2689889 L56.2512094,12.634682 L47.3308704,12.634682 L47.3308704,13.7009099 L57.7175665,13.7009099 L57.7175665,16.3664796 L31.078746,16.3664796 Z M46.9642812,29.4610909 L45.6201205,27.1287174 L50.5996248,27.1287174 L50.5996248,26.0958091 L38.288335,26.0958091 L38.288335,29.4610909 L32.5451031,29.4610909 L32.5451031,17.2327898 L56.3123076,17.2327898 L56.3123076,29.4610909 L46.9642812,29.4610909 Z M46.8115356,4.47137474 L42.015326,4.47137474 L42.015326,5.40432415 L46.8115356,5.40432415 L46.8115356,4.47137474 Z M50.5996248,19.6984418 L38.288335,19.6984418 L38.288335,20.6980304 L50.5996248,20.6980304 L50.5996248,19.6984418 Z M50.5996248,22.9304451 L38.288335,22.9304451 L38.288335,23.9300337 L50.5996248,23.9300337 L50.5996248,22.9304451 Z" id="菁菁头条" fill="#00D1FF"></path>
            <polygon id="Path" fill="#FFFFFF" points="67.6154768 7.70337803 62.4526779 1.20605183 69.6622669 1.20605183 74.8250659 7.70337803"></polygon>
            <polygon id="Path" fill="#FFFFFF" points="81.6680656 29.3944517 76.4747176 23.8967141 69.9372089 29.3944517 60.8335753 29.3944517 72.1672936 19.9316791 61.4140083 19.9316791 61.4140083 16.6330366 75.161106 16.6330366 75.161106 0.00654545455 81.2709272 0.00654545455 81.2709272 16.6330366 88.69436 16.6330366 88.69436 19.9316791 81.209829 19.9316791 79.1630389 21.6976191 82.1263022 21.6976191 89.4275385 29.3944517"></polygon>
            <polygon id="Path" fill="#FFFFFF" points="67.2488876 15.366891 61.7194994 8.53636857 69.0512848 8.53636857 74.5501239 15.366891"></polygon>
            <polygon id="Path" fill="#FFFFFF" points="110.353676 14.9670555 105.43527 12.4680839 100.577962 14.9670555 91.1077394 14.9670555 100.700159 10.0024319 94.3459446 6.77042863 103.816167 6.77042863 105.404721 7.53677993 110.170382 5.07112793 100.241922 5.07112793 99.1421543 6.07071658 92.2075072 6.07071658 98.6228195 0.00654545455 105.588016 0.00654545455 103.571775 1.9390835 117.654913 1.9390835 117.654913 6.00407733 110.139832 9.9691123 119.976645 14.9670555"></polygon>
            <polygon id="Path" fill="#FFFFFF" points="113.28639 29.361132 109.19281 20.7313501 115.36373 20.7313501 119.426761 29.361132"></polygon>
            <polygon id="Path" fill="#FFFFFF" points="108.490181 19.7317614 108.490181 29.361132 100.822355 29.361132 99.4781944 26.0624895 102.441458 26.0624895 102.441458 19.7317614 92.1769581 19.7317614 92.1769581 16.599717 102.441458 16.599717 102.441458 14.6338593 108.490181 14.6338593 108.490181 16.599717 118.724131 16.599717 118.724131 19.7317614"></polygon>
            <polygon id="Path" fill="#FFFFFF" points="97.614699 29.361132 91.3215831 29.361132 95.598458 20.7313501 101.891574 20.7313501"></polygon>
        </g>
    </g>
</svg>